<svg xmlns="http://www.w3.org/2000/svg" width="96" height="96" viewBox="0 0 96 96" fill="none">
  <rect width="96" height="96" rx="20" fill="#0F0F0F"/>
  <path d="M56 20c2 8 7 13 15 15v10c-6 0-11-2-15-5v18c0 11-9 20-20 20S16 69 16 58s9-20 20-20c2 0 4 0 6 1v10a10 10 0 10 4 8V20h10z" fill="#25F4EE"/>
  <path d="M60 18c2 8 7 13 15 15v10c-6 0-11-2-15-5v18c0 11-9 20-20 20-7 0-13-3-16-9 3 2 6 3 10 3 11 0 20-9 20-20V32c4 3 9 5 15 5V27c-8-2-13-7-15-15h6z" fill="#FE2C55" opacity="0.95"/>
  <path d="M58 19c2 8 7 13 15 15v10c-6 0-11-2-15-5v18c0 11-9 20-20 20S18 68 18 57s9-20 20-20c2 0 4 0 6 1v10a10 10 0 10 4 8V19h10z" fill="#fff"/>
</svg>
